PathFileType	4	(X/Y/Z)	OpenSim_Sub08_CSBaseline_Magnet.trc
DataRate	CameraRate	NumFrames	NumMarkers	Units	OrigDataRate	OrigDataStartFrame	OrigNumFrames
100	100	33	8	m	100	4096	5461
Frame#	Time	torso_imu_offset_imu	pelvis_imu_offset_imu	tibia_r_imu_offset_imu	femur_r_imu_offset_imu	tibia_l_imu_offset_imu	femur_l_imu_offset_imu	toes_r_imu_offset_imu	toes_l_imu_offset_imu
				X1	Y1	Z1	X2	Y2	Z2	X3	Y3	Z3	X4	Y4	Z4	X5	Y5	Z5	X6	Y6	Z6	X7	Y7	Z7	X8		Y8	Z8	

4096	40.95000000	-0.93750000	-0.18823200	0.05883800	-0.64697300	0.21069300	-0.65942400	-0.77050800	-0.36401400	-0.00122100	-0.82421900	-0.22485400	-0.05175800	-0.41772500	0.66479500	0.31323200	-0.49804700	0.13232400	0.40380900	-0.61718800	-0.13623000	-0.46606400	-0.82373000	-0.20263700	-0.14331100
4097	40.96000000	-0.93554700	-0.18603500	0.05444300	-0.64502000	0.21704100	-0.65966800	-0.76391600	-0.37426800	0.00366200	-0.82421900	-0.22290000	-0.05175800	-0.40014600	0.67822300	0.30346700	-0.50024400	0.13427700	0.39257800	-0.62768600	-0.13452100	-0.45996100	-0.81689500	-0.20703100	-0.12085000
4098	40.97000000	-0.93554700	-0.18603500	0.04785200	-0.64135700	0.23364300	-0.65551800	-0.76367200	-0.38061500	0.01269500	-0.82226600	-0.22070300	-0.05419900	-0.38720700	0.68920900	0.29834000	-0.50683600	0.13208000	0.38598600	-0.62768600	-0.13037100	-0.44946300	-0.81420900	-0.21606400	-0.08691400
4099	40.98000000	-0.93750000	-0.18823200	0.04565400	-0.64794900	0.23999000	-0.65576200	-0.75708000	-0.39111300	0.01318400	-0.82202100	-0.22900400	-0.04687500	-0.36987300	0.71118200	0.27685500	-0.50488300	0.13867200	0.37695300	-0.64038100	-0.12866200	-0.44335900	-0.81884800	-0.21411100	-0.04199200
4100	40.99000000	-0.93750000	-0.18823200	0.04126000	-0.65014600	0.24194300	-0.64892600	-0.75659200	-0.39941400	0.01782200	-0.82202100	-0.23315400	-0.04003900	-0.35693400	0.72241200	0.26733400	-0.50927700	0.13867200	0.37231400	-0.64233400	-0.13061500	-0.44140600	-0.80957000	-0.22314500	-0.01513700
4101	41.00000000	-0.93530300	-0.19238300	0.04589800	-0.64794900	0.23779300	-0.64648400	-0.75000000	-0.40771500	0.01806600	-0.82177700	-0.23730500	-0.03979500	-0.32812500	0.72900400	0.24853500	-0.51782200	0.12768600	0.36352500	-0.63818400	-0.13281200	-0.43701200	-0.80957000	-0.22558600	0.03222700
4102	41.01000000	-0.93090800	-0.19238300	0.03491200	-0.65234400	0.24633800	-0.64672900	-0.75415000	-0.41186500	0.01831100	-0.81933600	-0.24780300	-0.03930700	-0.31079100	0.75317400	0.23388700	-0.51782200	0.12768600	0.35913100	-0.64453100	-0.13085900	-0.42871100	-0.80249000	-0.23242200	0.07934600
4103	41.02000000	-0.93725600	-0.19458000	0.03271500	-0.65234400	0.24194300	-0.64892600	-0.74536100	-0.42456100	0.01660200	-0.81298800	-0.25585900	-0.03442400	-0.29321300	0.75781200	0.22900400	-0.52856400	0.12109400	0.34570300	-0.64868200	-0.13281200	-0.42675800	-0.79345700	-0.23266600	0.12670900
4104	41.03000000	-0.94165000	-0.19458000	0.03271500	-0.64794900	0.23999000	-0.65356400	-0.74536100	-0.42651400	0.02319300	-0.81250000	-0.26831100	-0.03637700	-0.27343800	0.77099600	0.21020500	-0.53710900	0.11425800	0.33667000	-0.64819300	-0.14306600	-0.42041000	-0.78027300	-0.22631800	0.17382800
4105	41.04000000	-0.93945300	-0.19653300	0.03076200	-0.64770500	0.23584000	-0.65576200	-0.74511700	-0.43066400	0.02783200	-0.80835000	-0.27050800	-0.03173800	-0.25122100	0.77319300	0.20752000	-0.53686500	0.10351600	0.32788100	-0.64624000	-0.13891600	-0.42236300	-0.76489300	-0.21752900	0.21435500
4106	41.05000000	-0.93920900	-0.20288100	0.02880900	-0.64331100	0.23168900	-0.65551800	-0.73657200	-0.43701200	0.02587900	-0.80371100	-0.28491200	-0.02417000	-0.23144500	0.78662100	0.19995100	-0.54736300	0.09252900	0.32128900	-0.64624000	-0.14502000	-0.42651400	-0.75659200	-0.20459000	0.26586900
4107	41.06000000	-0.93066400	-0.20507800	0.03540000	-0.64550800	0.22949200	-0.66015600	-0.73437500	-0.44116200	0.03491200	-0.79736300	-0.28906200	-0.02172900	-0.21118200	0.78442400	0.20190400	-0.55810500	0.08374000	0.30786100	-0.63989300	-0.14721700	-0.42016600	-0.74609400	-0.18261700	0.30175800
4108	41.07000000	-0.93701200	-0.20727500	0.03320300	-0.63891600	0.23168900	-0.66723600	-0.73217800	-0.44531200	0.04174800	-0.79711900	-0.30151400	-0.00756800	-0.19555700	0.78881800	0.20825200	-0.55981400	0.06640600	0.29907200	-0.64184600	-0.15112300	-0.42016600	-0.73364300	-0.15429700	0.34228500
4109	41.08000000	-0.93701200	-0.20507800	0.04199200	-0.63037100	0.22753900	-0.67407200	-0.72973600	-0.45385700	0.05322300	-0.79907200	-0.29956100	0.00610400	-0.17578100	0.79541000	0.20092800	-0.57055700	0.06176800	0.29248000	-0.64599600	-0.14917000	-0.41601600	-0.72338900	-0.13012700	0.36694300
4110	41.09000000	-0.94116200	-0.20507800	0.04199200	-0.62817400	0.23193400	-0.67651400	-0.72558600	-0.45581100	0.05786100	-0.78833000	-0.30981400	0.01342800	-0.16210900	0.79101600	0.20092800	-0.57690400	0.05297900	0.28344700	-0.63964800	-0.15332000	-0.41796900	-0.72241200	-0.10156200	0.38476600
4111	41.10000000	-0.93920900	-0.20507800	0.04858400	-0.62182600	0.23413100	-0.68115200	-0.72119100	-0.46411100	0.06713900	-0.78613300	-0.31811500	0.02294900	-0.14477500	0.80664100	0.18872100	-0.58081100	0.03784200	0.26806600	-0.63964800	-0.15527300	-0.42211900	-0.72778300	-0.07299800	0.37793000
4112	41.11000000	-0.93505900	-0.19873000	0.05932600	-0.62158200	0.22558600	-0.67846700	-0.71655300	-0.47265600	0.07177700	-0.78369100	-0.32641600	0.02539100	-0.13598600	0.80883800	0.17504900	-0.59155300	0.02465800	0.27270500	-0.63549800	-0.15722700	-0.42211900	-0.73999000	-0.04858400	0.36206100
4113	41.12000000	-0.93725600	-0.19653300	0.06372100	-0.62158200	0.22998000	-0.68335000	-0.71655300	-0.47680700	0.07641600	-0.78369100	-0.32836900	0.03002900	-0.12939500	0.81762700	0.16357400	-0.59350600	0.02026400	0.25708000	-0.63940400	-0.16137700	-0.41992200	-0.75195300	-0.02880900	0.35302700
4114	41.13000000	-0.93090800	-0.19653300	0.06372100	-0.62158200	0.22778300	-0.68335000	-0.71435500	-0.47680700	0.07861300	-0.77954100	-0.33056600	0.03710900	-0.12500000	0.81543000	0.15234400	-0.60180700	0.00708000	0.25488300	-0.62695300	-0.16528300	-0.41992200	-0.76611300	-0.00903300	0.33935500
4115	41.14000000	-0.93750000	-0.19018600	0.06787100	-0.61938500	0.22143600	-0.68530300	-0.71215800	-0.48291000	0.07666000	-0.77929700	-0.33667000	0.03491200	-0.12963900	0.81787100	0.12988300	-0.60815400	-0.00366200	0.24829100	-0.62475600	-0.17138700	-0.43017600	-0.76684600	0.00854500	0.32592800
4116	41.15000000	-0.93115200	-0.18823200	0.07446300	-0.62793000	0.22143600	-0.68774400	-0.70776400	-0.48510700	0.07666000	-0.77490200	-0.34497100	0.03759800	-0.12963900	0.82226600	0.12304700	-0.61425800	-0.02124000	0.24169900	-0.62451200	-0.17944300	-0.42163100	-0.77661100	0.02856400	0.30322300
4117	41.16000000	-0.93750000	-0.19018600	0.08105500	-0.62109400	0.21313500	-0.68750000	-0.70336900	-0.49560500	0.07714800	-0.77490200	-0.34716800	0.04003900	-0.14282200	0.81347700	0.10571300	-0.61157200	-0.03637700	0.23974600	-0.62231400	-0.18139600	-0.42382800	-0.78833000	0.04614300	0.28735400
4118	41.17000000	-0.93750000	-0.18823200	0.08105500	-0.62548800	0.21093800	-0.68505900	-0.70312500	-0.50170900	0.08178700	-0.77075200	-0.34692400	0.03540000	-0.15429700	0.81567400	0.10571300	-0.61792000	-0.04296900	0.23291000	-0.61377000	-0.18945300	-0.42993200	-0.79565400	0.05932600	0.26489300
4119	41.18000000	-0.93994100	-0.18188500	0.08740200	-0.62085000	0.20043900	-0.68920900	-0.70092800	-0.50390600	0.07739300	-0.77270500	-0.34692400	0.03540000	-0.16308600	0.81127900	0.10376000	-0.61743200	-0.05810500	0.22876000	-0.61352500	-0.19775400	-0.43603500	-0.80273400	0.07251000	0.24682600
4120	41.19000000	-0.93994100	-0.18188500	0.09619100	-0.62524400	0.20263700	-0.68945300	-0.70068400	-0.51025400	0.08422900	-0.77685500	-0.35327100	0.03784200	-0.17871100	0.81347700	0.09057600	-0.62109400	-0.07568400	0.22216800	-0.60302700	-0.20166000	-0.43798800	-0.81396500	0.07055700	0.22216800
4121	41.20000000	-0.93359400	-0.17749000	0.09594700	-0.62695300	0.19409200	-0.69604500	-0.68798800	-0.51440400	0.08667000	-0.76831100	-0.35522500	0.03808600	-0.19433600	0.80468800	0.08227500	-0.62524400	-0.08642600	0.22436500	-0.60278300	-0.21167000	-0.44409200	-0.82080100	0.07275400	0.19067400
4122	41.21000000	-0.94213900	-0.17553700	0.10034200	-0.62255900	0.18994100	-0.69360400	-0.68969700	-0.52270500	0.08252000	-0.77246100	-0.35742200	0.03808600	-0.21875000	0.80444300	0.08691400	-0.62670900	-0.10400400	0.22924800	-0.60034200	-0.21972700	-0.45214800	-0.82959000	0.06640600	0.15454100
4123	41.22000000	-0.94238300	-0.17334000	0.10668900	-0.62255900	0.18798800	-0.69799800	-0.67919900	-0.52880900	0.08276400	-0.76831100	-0.35522500	0.03808600	-0.24511700	0.78906200	0.09252900	-0.62451200	-0.11035200	0.22460900	-0.59399400	-0.22387700	-0.45629900	-0.83789100	0.05322300	0.12085000
4124	41.23000000	-0.93823200	-0.17138700	0.10888700	-0.62426800	0.17944300	-0.69775400	-0.67480500	-0.53515600	0.08081100	-0.77026400	-0.36157200	0.04296900	-0.26953100	0.78247100	0.09545900	-0.62622100	-0.12548800	0.20678700	-0.59155300	-0.23584000	-0.46215800	-0.84863300	0.03808600	0.08276400
4125	41.24000000	-0.93798800	-0.17334000	0.11108400	-0.62646500	0.17529300	-0.70239300	-0.67480500	-0.53515600	0.08081100	-0.76171900	-0.36352500	0.04077100	-0.29614300	0.77368200	0.10083000	-0.63012700	-0.13867200	0.20922900	-0.58960000	-0.23584000	-0.46655300	-0.84594700	0.02734400	0.04907200
4126	41.25000000	-0.93823200	-0.17138700	0.11547900	-0.61987300	0.17334000	-0.70678700	-0.66162100	-0.54980500	0.08349600	-0.76171900	-0.36547900	0.03613300	-0.32275400	0.76025400	0.10839800	-0.63403300	-0.15161100	0.20947300	-0.58740200	-0.24194300	-0.47680700	-0.84497100	0.00317400	0.01098600
4127	41.26000000	-0.93383800	-0.17334000	0.11547900	-0.61547900	0.17334000	-0.70922900	-0.67211900	-0.55175800	0.07910200	-0.75952100	-0.36962900	0.03857400	-0.36010700	0.74267600	0.10986300	-0.63159200	-0.15820300	0.20727500	-0.59130900	-0.24804700	-0.48291000	-0.83544900	-0.01171900	-0.03173800
4128	41.27000000	-0.93579100	-0.17553700	0.12451200	-0.61962900	0.16479500	-0.70898400	-0.65722700	-0.55395500	0.08349600	-0.75732400	-0.37597700	0.04126000	-0.39331100	0.72705100	0.11767600	-0.63574200	-0.16699200	0.20507800	-0.58056600	-0.25805700	-0.49511700	-0.83471700	-0.03149400	-0.06982400
